<?xml version="1.0" encoding="utf-8"?>
<!-- Generator: Adobe Illustrator 26.0.0, SVG Export Plug-In . SVG Version: 6.00 Build 0)  -->
<svg version="1.1" id="图层_1" xmlns="http://www.w3.org/2000/svg" xmlns:xlink="http://www.w3.org/1999/xlink" x="0px" y="0px"
	 viewBox="0 0 907.09 510.24" style="enable-background:new 0 0 907.09 510.24;" xml:space="preserve">
<style type="text/css">
	.st0{display:none;fill:none;stroke:#E6E6E6;stroke-miterlimit:10;}
	.st1{display:none;fill:none;stroke:#E6E6E6;stroke-width:0.976;stroke-miterlimit:10;}
	.st2{display:none;fill:#0F0F0F;}
	.st3{display:none;}
	.st4{display:inline;}
	.st5{fill:#FFFFFF;}
</style>
<rect x="79.88" y="-343.72" class="st0" width="453.54" height="850.39"/>
<rect x="764.72" y="-336.63" class="st1" width="439.37" height="836.22"/>
<rect x="721.53" y="645.11" class="st2" width="510.24" height="1105.51"/>
<g>
	<path d="M286.13,202.21v15.96h-45.01v27.75h43.09v15.96h-43.09v30.02h46.01v15.96h-65.21V202.21H286.13z"/>
	<path d="M316.87,202.21l28.09,67.83l27.38-67.83h20.12l-43.87,107h-6.69l-45.3-107H316.87z"/>
	<path d="M470.14,202.21v15.96h-45.01v27.75h43.09v15.96h-43.09v30.02h46.01v15.96h-65.21V202.21H470.14z"/>
	<path d="M524.83,202.21c9.34,0,16.95,2.75,22.82,8.24c5.88,5.5,8.82,12.65,8.82,21.48c0,6-1.46,11.23-4.37,15.69
		c-2.92,4.46-7.24,7.98-12.98,10.55c3.18,1.82,6,4.29,8.46,7.41s5.52,8.39,9.17,15.8c6.07,12.81,10.57,21.63,13.51,26.47h-21.4
		c-1.47-2.32-3.46-6.02-5.97-11.12c-5.5-11.24-9.53-18.82-12.09-22.72c-2.56-3.91-5.03-6.68-7.4-8.32c-2.37-1.64-5.1-2.46-8.18-2.46
		h-6.97v44.62h-19.2V202.21H524.83z M520.49,247.28c5.02,0,8.97-1.34,11.84-4.01c2.87-2.67,4.3-6.33,4.3-10.96
		c0-4.84-1.42-8.46-4.27-10.85c-2.84-2.4-6.9-3.59-12.16-3.59h-11.95v29.41H520.49z"/>
	<path d="M800.27,202.21l32.64,41.67l32.64-41.67h17.14v105.64h-19.2v-74.18h-0.57l-28.73,37.2h-2.7l-28.73-37.2h-0.57v74.18h-19.2
		V202.21H800.27z"/>
	<path d="M118.78,263.4c-3.76,17.27-19.15,30.24-37.52,30.24c-21.19,0-38.42-17.24-38.42-38.42s17.24-38.42,38.42-38.42
		c18.38,0,33.76,12.98,37.52,30.24v-34.49c-10.02-8.82-23.15-14.19-37.52-14.19c-31.36,0-56.86,25.51-56.86,56.86
		c0,31.36,25.51,56.86,56.86,56.86c14.37,0,27.5-5.37,37.52-14.19V263.4z"/>
	<path d="M160.54,202.21v89.69h48.21v15.96h-67.41V202.21H160.54z"/>
	<path d="M715.86,173.96c-17.6,0-30.46,8.57-38.87,17.47v30.74c6.64-18.2,25.14-29.77,38.87-29.77c18.13,0,32.88,14.75,32.88,32.88
		s-14.75,32.96-32.88,32.88c-25.19-0.11-38.05-31.7-52.19-45.39c-9.68-9.36-23.29-14.42-37.78-14.42
		c-31.35,0-56.86,25.51-56.86,56.86s25.51,56.86,56.86,56.86c15.4,0,32.38-7.04,43.66-21.06v-32.94
		c-7.28,17.22-23.33,35.56-43.66,35.56c-21.19,0-38.42-17.24-38.42-38.42s17.24-38.51,38.42-38.42
		c27.97,0.11,40.04,34.93,57.86,48.47c8.99,6.83,19.97,11.33,32.12,11.33c28.3,0,51.32-23.02,51.32-51.32
		S744.16,173.96,715.86,173.96z"/>
</g>
<g class="st3">
	<g class="st4">
		<path class="st5" d="M287.54,912c-0.47-1.01-1.61-2.89-2.63-4.44v14.71h-3.03v-13.64c-1.24,3.06-2.76,5.93-4.31,7.85
			c-0.3-0.84-1.04-2.12-1.52-2.9c1.99-2.29,4.14-6.29,5.39-9.86h-4.95v-2.93h5.39v-4.51c-1.45,0.27-2.89,0.47-4.24,0.67
			c-0.1-0.67-0.54-1.78-0.88-2.42c3.77-0.61,8.08-1.58,10.71-2.73l1.78,2.56c-1.28,0.5-2.76,0.91-4.35,1.28v5.15h4.72v2.93h-4.72
			v0.47c1.01,1.04,3.87,4.48,4.51,5.35L287.54,912z M303.33,913.65v8.62h-3.1v-8.08l-10.6,1.78l-0.47-3l11.08-1.85V891.4h3.1v19.23
			l3.67-0.61l0.47,2.93L303.33,913.65z M296,909.11c-1.11-1.45-3.57-3.6-5.62-5.02l1.99-1.82c2.02,1.35,4.58,3.37,5.76,4.78
			L296,909.11z M296.84,900.25c-1.01-1.41-3.3-3.47-5.22-4.88l2.06-1.78c1.92,1.31,4.24,3.27,5.35,4.68L296.84,900.25z"/>
		<path class="st5" d="M339.24,898.54c0,0-0.03,1.11-0.07,1.55c-0.74,13.63-1.38,18.62-2.86,20.33c-0.91,1.08-1.78,1.41-3.1,1.55
			c-1.21,0.14-3.37,0.1-5.35,0c-0.07-0.91-0.5-2.29-1.11-3.23c2.22,0.2,4.27,0.2,5.12,0.2c0.74,0,1.15-0.1,1.55-0.5
			c1.15-1.08,1.85-5.69,2.42-16.7H325.3c-0.5,6.94-2.79,15.08-12.36,20.74c-0.5-0.78-1.68-1.95-2.42-2.52
			c8.75-5.02,10.94-12.16,11.45-18.22h-10.44v-3.2h10.61v-0.84v-6.23h3.3v6.23v0.84H339.24z"/>
		<path class="st5" d="M374.14,918.91v2.52h-24.81v-2.52h10.74v-3.1h-8.35v-2.49h8.35v-2.52c-5.92,0.4-7,0.54-7.81,0.84
			c-0.13-0.61-0.61-1.99-0.94-2.76c0.61-0.1,1.21-0.44,1.89-1.01c0.5-0.34,1.62-1.25,2.76-2.39h-5.76
			c-0.17,5.42-0.98,12.15-3.84,16.8c-0.57-0.47-1.99-1.28-2.79-1.55c3.27-5.32,3.53-12.9,3.53-18.21v-9.46h25.15v7.88h-21.98v1.58
			v0.44h22.96v2.53H367c2.26,1.58,4.78,3.74,6.13,5.25l-2.49,1.55c-0.5-0.57-1.15-1.28-1.95-2.05l-5.55,0.37v2.73h8.52v2.49h-8.52
			v3.1H374.14z M350.27,895.61v2.76h18.85v-2.76H350.27z M359.9,905.47c-1.04,1.04-2.19,2.05-3.37,3l9.56-0.51
			c-0.67-0.54-1.35-1.08-1.99-1.55l1.58-0.94H359.9z"/>
		<path class="st5" d="M390.69,907.66c-0.98-0.81-3.17-2.39-4.78-3.5c-1.18,1.82-3.17,3.6-6.46,5.08c-0.4-0.61-1.28-1.58-1.99-2.09
			c3.91-1.52,5.66-3.47,6.43-5.35h-6.09v-2.49h2.29c-0.61-0.4-1.75-1.14-2.39-1.41c1.68-1.68,3-4.14,3.7-6.63l2.8,0.57
			c-0.24,0.77-0.51,1.48-0.78,2.22h8.72v2.49h-4.65v1.75c0,0.33,0,0.67-0.03,1.01h5.52v2.49h-5.99l-0.1,0.3
			c1.38,0.67,5.09,2.86,5.99,3.5L390.69,907.66z M384.5,899.31c0.03-0.37,0.03-0.71,0.03-1.04v-1.72h-2.35
			c-0.57,1.08-1.25,1.99-1.95,2.76H384.5z M382.48,908.4h21.11v13.84h-3.2v-1.15h-14.81v1.18h-3.1V908.4z M385.57,910.89v2.63h14.81
			v-2.63H385.57z M400.39,918.57v-2.69h-14.81v2.69H400.39z M406.41,894.03v12.02h-12.15v-12.02H406.41z M403.32,896.79h-6.13v6.5
			h6.13V896.79z"/>
		<path class="st5" d="M422.86,893.42c1.65,2.26,3.4,5.25,4.07,7.31l-2.79,1.18c-0.17-0.54-0.41-1.11-0.71-1.75
			c-8.65,0.67-9.86,0.84-10.67,1.18c-0.17-0.64-0.64-2.12-1.04-2.96c0.54-0.1,1.04-0.61,1.58-1.31c0.57-0.67,2.26-3.2,3.3-5.76
			l3.27,0.94c-1.08,2.05-2.49,4.24-3.87,5.96l6.29-0.41c-0.64-1.18-1.31-2.32-2.05-3.37L422.86,893.42z M425.35,918.94
			c0,1.48-0.3,2.29-1.28,2.76c-1.04,0.5-2.52,0.54-4.58,0.54c-0.17-0.81-0.61-2.06-1.04-2.83c1.41,0.07,2.8,0.07,3.27,0.03
			c0.44,0,0.54-0.13,0.54-0.54v-3.2h-6.2v6.57h-2.93v-18.95h12.22V918.94z M416.06,905.94v2.39h6.2v-2.39H416.06z M422.26,913.28
			v-2.52h-6.2v2.52H422.26z M432.59,906.14c-3.5,0-4.34-0.91-4.34-4.01v-10.67h3.06v5.29c2.63-0.91,5.29-2.05,7.07-3l2.02,2.26
			c-2.56,1.24-5.99,2.35-9.09,3.27v2.83c0,1.08,0.24,1.28,1.65,1.28h4.61c1.21,0,1.45-0.54,1.58-3.67c0.64,0.5,1.92,0.98,2.76,1.18
			c-0.37,4.14-1.21,5.25-4.04,5.25H432.59z M437.74,919.31c1.28,0,1.52-0.64,1.69-4.24c0.67,0.47,1.92,0.98,2.76,1.18
			c-0.37,4.58-1.21,5.79-4.18,5.79h-5.32c-3.53,0-4.44-0.91-4.44-4.04v-10.97h3.1v5.01c2.76-0.98,5.55-2.19,7.34-3.4l2.06,2.32
			c-2.56,1.48-6.16,2.69-9.39,3.67V918c0,1.11,0.27,1.31,1.72,1.31H437.74z"/>
	</g>
	<g class="st4">
		<path class="st5" d="M491.77,918.75c1.11,0,1.31-0.67,1.45-4.85c0.67,0.54,2.02,1.04,2.83,1.28c-0.3,5.15-1.15,6.53-4.01,6.53
			h-4.38c-3.33,0-4.14-1.01-4.14-4.18v-9.09h-5.66c-0.74,6.23-2.56,11.18-10.2,13.97c-0.37-0.84-1.25-2.09-1.95-2.76
			c6.9-2.12,8.28-6.2,8.85-11.21h-8.35v-3.03h13.13v-6.2h-6.43c-0.81,1.82-1.72,3.54-2.76,4.92c-0.74-0.5-1.99-1.18-2.76-1.48
			c2.25-2.76,3.9-7.27,4.64-10.67l3.2,0.61c-0.34,1.14-0.71,2.39-1.14,3.64h5.25v-4.92h3.17v4.92h10.67v3h-10.67v6.2h13.16v3.03
			h-8.99v9.09c0,1.04,0.2,1.21,1.35,1.21H491.77z"/>
		<path class="st5" d="M529.49,907.54h-12.93v10.4c0,2.09-0.54,3.03-1.92,3.54c-1.38,0.54-3.7,0.61-7.07,0.61
			c-0.17-0.94-0.78-2.42-1.31-3.3c2.66,0.1,5.22,0.07,5.99,0.03c0.71,0,1.01-0.2,1.01-0.91v-10.37H499.7v-3.1h13.57v-7.74h-11.28
			v-3.1h25.22v3.1h-10.64v7.74h12.93V907.54z"/>
		<path class="st5" d="M542.98,892.36c-0.91,2.39-2.05,4.78-3.33,7.07v22.76h-2.96v-18.11c-0.94,1.31-1.92,2.49-2.9,3.53
			c-0.3-0.77-1.21-2.46-1.72-3.16c3.17-3.13,6.16-8.05,7.98-12.96L542.98,892.36z M554.76,900.47v18.11c0,1.61-0.34,2.52-1.35,3.06
			c-1.01,0.51-2.52,0.61-4.64,0.61c-0.14-0.87-0.64-2.29-1.11-3.13c1.52,0.04,2.96,0.04,3.4,0c0.44,0,0.61-0.1,0.61-0.54v-18.11
			h-4.55c-1.01,2.12-2.09,4.01-3.23,5.52c-0.57-0.57-1.82-1.58-2.56-2.05c2.53-2.96,4.45-7.71,5.59-12.46l3.1,0.67
			c-0.47,1.85-1.04,3.67-1.72,5.42h12.73l0.5-0.1l2.19,0.44c-0.44,2.56-1.04,5.52-1.48,7.41l-2.66-0.5
			c0.24-1.15,0.47-2.73,0.67-4.34H554.76z M549.24,906.47c-1.01,4.34-2.76,8.58-4.75,11.34c-0.57-0.5-1.95-1.31-2.66-1.68
			c1.98-2.49,3.5-6.36,4.34-10.23L549.24,906.47z M559.44,905.59c1.85,3.5,3.43,8.01,3.97,11.05l-3,1.08
			c-0.47-3.03-2.02-7.71-3.77-11.21L559.44,905.59z"/>
		<path class="st5" d="M571.38,910.13c-0.2,4.18-0.84,8.92-2.76,12.22c-0.54-0.61-1.85-1.65-2.56-1.98
			c2.15-4.01,2.32-9.66,2.32-14.04v-11.85c4.01-0.5,8.69-1.35,11.38-2.49l2.02,2.63c-2.76,1.08-6.7,1.78-10.3,2.22v2.83h8.82v10.47
			H571.38z M571.48,902.49v3.84v0.98h5.83v-4.82H571.48z M597.37,905.59h-3.57v16.5h-3.1v-16.5h-4.48
			c-0.03,5.22-0.77,12.36-5.32,16.73c-0.51-0.61-1.78-1.72-2.49-2.12c4.24-4.14,4.65-10.13,4.65-14.85v-10.77
			c4.14-0.61,8.85-1.61,11.65-2.83l2.12,2.69c-2.89,1.11-6.9,1.92-10.61,2.46v5.66h11.14V905.59z"/>
		<path class="st5" d="M606.58,911.08v-7.88c-1.31,2.43-2.93,4.61-4.58,6.03c-0.47-0.71-1.41-1.68-2.05-2.22
			c2.36-1.68,4.72-4.92,6.13-8.11h-5.32v-2.66h5.83v-4.81h2.96v4.81h5.05v2.66h-5.05v1.62c1.28,0.77,4.61,3.2,5.49,3.84l-1.68,2.56
			c-0.81-0.84-2.42-2.32-3.81-3.5v7.64L606.58,911.08z M600.32,919.03c1.31-1.78,2.43-4.58,3.06-6.9l2.76,1.11
			c-0.67,2.32-1.75,5.32-3,7.2L600.32,919.03z M619.51,918.72c1.58,0,1.82-0.47,2.02-3.84c0.67,0.5,1.95,0.94,2.83,1.14
			c-0.44,4.45-1.31,5.49-4.61,5.49h-6.57c-4.04,0-5.09-0.84-5.09-3.8v-5.02h3.1v4.98c0,0.91,0.34,1.04,2.26,1.04H619.51z
			 M614.83,910.13c1.51,1.41,3.57,3.4,4.61,4.61l-2.29,1.92c-0.94-1.25-2.96-3.33-4.48-4.85L614.83,910.13z M629.27,910.67h-13.3
			v-17.61h13.3V910.67z M626.28,895.59h-7.44v2.56h7.44V895.59z M626.28,900.54h-7.44v2.63h7.44V900.54z M626.28,905.52h-7.44v2.66
			h7.44V905.52z M626.92,911.62c1.38,2.09,3.23,4.95,4.11,6.66l-2.89,1.48c-0.81-1.75-2.59-4.72-3.94-6.87L626.92,911.62z"/>
	</g>
</g>
</svg>
